{
	"asset":{
		"version":"2.0",
		"generator":"Created using the official Cinema 4D glTF Exporter 1.000x284978"
	},
	"scenes":[{
		"nodes":[0,
		1,
		2]
	}],
	"nodes":[{
		"name":"1",
		"mesh":0
	},
	{
		"name":"2",
		"mesh":1
	},
	{
		"name":"3",
		"mesh":2
	}],
	"materials":[{
		"emissiveFactor":[0.0,
		0.0,
		0.0],
		"pbrMetallicRoughness":{
			"baseColorFactor":[1.0,
			0.392156862745098,
			0.392156862745098,
			1.0],
			"metallicFactor":0.0,
			"roughnessFactor":0.5
		},
		"alphaMode":"OPAQUE",
		"doubleSided":false,
		"name":"Mat.1"
	},
	{
		"emissiveFactor":[0.0,
		0.0,
		0.0],
		"pbrMetallicRoughness":{
			"baseColorFactor":[1.0,
			1.0,
			1.0,
			1.0],
			"metallicFactor":0.0,
			"roughnessFactor":0.5
		},
		"alphaMode":"OPAQUE",
		"doubleSided":false,
		"name":"Mat"
	}],
	"meshes":[{
		"name":"1",
		"primitives":[{
			"attributes":{
				"POSITION":1,
				"NORMAL":2,
				"TEXCOORD_0":3
			},
			"indices":0,
			"material":0
		}]
	},
	{
		"name":"2",
		"primitives":[{
			"attributes":{
				"POSITION":5,
				"NORMAL":6,
				"TEXCOORD_0":7
			},
			"indices":4,
			"material":1
		}]
	},
	{
		"name":"3",
		"primitives":[{
			"attributes":{
				"POSITION":9,
				"NORMAL":10,
				"TEXCOORD_0":11
			},
			"indices":8,
			"material":0
		}]
	}],
	"accessors":[{
		"bufferView":0,
		"type":"SCALAR",
		"componentType":5123,
		"byteOffset":0,
		"count":24192,
		"min":[0],
		"max":[11244]
	},
	{
		"bufferView":1,
		"type":"VEC3",
		"componentType":5126,
		"byteOffset":0,
		"count":11245,
		"min":[-8.0,
		-108.0,
		-108.0],
		"max":[8.0,
		108.0,
		108.0]
	},
	{
		"bufferView":1,
		"type":"VEC3",
		"componentType":5126,
		"byteOffset":12,
		"count":11245,
		"min":[-1.0,
		-1.0,
		-1.0],
		"max":[1.0,
		1.0,
		1.0]
	},
	{
		"bufferView":1,
		"type":"VEC2",
		"componentType":5126,
		"byteOffset":24,
		"count":11245,
		"min":[0.0,
		0.0],
		"max":[1.0,
		1.0]
	},
	{
		"bufferView":2,
		"type":"SCALAR",
		"componentType":5123,
		"byteOffset":0,
		"count":4536,
		"min":[0],
		"max":[2189]
	},
	{
		"bufferView":3,
		"type":"VEC3",
		"componentType":5126,
		"byteOffset":0,
		"count":2190,
		"min":[-93.0,
		-6.928203105926514,
		-93.0],
		"max":[93.0,
		6.928203105926514,
		93.0]
	},
	{
		"bufferView":3,
		"type":"VEC3",
		"componentType":5126,
		"byteOffset":12,
		"count":2190,
		"min":[-1.0,
		-1.0,
		-1.0],
		"max":[1.0,
		1.0,
		1.0]
	},
	{
		"bufferView":3,
		"type":"VEC2",
		"componentType":5126,
		"byteOffset":24,
		"count":2190,
		"min":[0.0,
		0.0],
		"max":[1.0,
		1.0]
	},
	{
		"bufferView":4,
		"type":"SCALAR",
		"componentType":5123,
		"byteOffset":0,
		"count":4224,
		"min":[0],
		"max":[1471]
	},
	{
		"bufferView":5,
		"type":"VEC3",
		"componentType":5126,
		"byteOffset":0,
		"count":1472,
		"min":[-80.0,
		-80.0,
		-7.918571472167969],
		"max":[80.0,
		80.0,
		7.918571472167969]
	},
	{
		"bufferView":5,
		"type":"VEC3",
		"componentType":5126,
		"byteOffset":12,
		"count":1472,
		"min":[-0.9961414933204651,
		-0.9961414933204651,
		-0.9953352808952332],
		"max":[0.9961414933204651,
		0.9961414933204651,
		0.9953352808952332]
	},
	{
		"bufferView":5,
		"type":"VEC2",
		"componentType":5126,
		"byteOffset":24,
		"count":1472,
		"min":[0.0,
		0.0],
		"max":[1.0,
		1.0]
	}],
	"bufferViews":[{
		"buffer":0,
		"byteOffset":0,
		"byteLength":48384,
		"target":34963
	},
	{
		"buffer":0,
		"byteOffset":48384,
		"byteLength":359840,
		"target":34962,
		"byteStride":32
	},
	{
		"buffer":1,
		"byteOffset":0,
		"byteLength":9072,
		"target":34963
	},
	{
		"buffer":1,
		"byteOffset":9072,
		"byteLength":70080,
		"target":34962,
		"byteStride":32
	},
	{
		"buffer":2,
		"byteOffset":0,
		"byteLength":8448,
		"target":34963
	},
	{
		"buffer":2,
		"byteOffset":8448,
		"byteLength":47104,
		"target":34962,
		"byteStride":32
	}],
	"buffers":[{
		"uri":"data:application/octet-stream;base64,",
		"byteLength":408224
	},
	{
		"uri":"data:application/octet-stream;base64,",
		"byteLength":79152
	},
	{
		"uri":"data:application/octet-stream;base64,",
		"byteLength":55552
	}]
}