{
	"asset":{
		"version":"2.0",
		"generator":"Created using the official Cinema 4D glTF Exporter 1.000x284978"
	},
	"scenes":[{
		"nodes":[0]
	}],
	"nodes":[{
		"name":"ספר.6",
		"translation":[18.462512969970704,
		38.63499069213867,
		-40.9705810546875],
		"rotation":[0.0,
		0.0,
		0.0,
		-1.0],
		"scale":[1.0,
		1.0,
		1.0],
		"children":[1,
		2,
		3,
		4,
		5,
		6,
		7,
		8]
	},
	{
		"name":"ספר.6",
		"mesh":0
	},
	{
		"name":"ספר.6-Mat.2",
		"mesh":1
	},
	{
		"name":"ספר.6-Mat",
		"mesh":2
	},
	{
		"name":"ספר.6-Mat.2",
		"mesh":3
	},
	{
		"name":"ספר.6-Mat",
		"mesh":4
	},
	{
		"name":"ספר.6-Mat.1",
		"mesh":5
	},
	{
		"name":"ספר.6-Mat.1",
		"mesh":6
	},
	{
		"name":"ספר.6-Mat.2",
		"mesh":7
	}],
	"materials":[{
		"pbrMetallicRoughness":{
			"baseColorFactor":[0.0,
			0.0,
			0.0,
			1.0],
			"metallicFactor":0.0,
			"roughnessFactor":0.48
		},
		"emissiveFactor":[0.0,
		0.0,
		0.0],
		"alphaMode":"OPAQUE",
		"doubleSided":false,
		"name":"Mat.2"
	},
	{
		"pbrMetallicRoughness":{
			"baseColorFactor":[1.0,
			0.392156862745098,
			0.392156862745098,
			1.0],
			"metallicFactor":0.0,
			"roughnessFactor":0.48
		},
		"emissiveFactor":[0.0,
		0.0,
		0.0],
		"alphaMode":"OPAQUE",
		"doubleSided":false,
		"name":"Mat"
	},
	{
		"pbrMetallicRoughness":{
			"baseColorFactor":[1.0,
			1.0,
			1.0,
			1.0],
			"metallicFactor":0.0,
			"roughnessFactor":0.48
		},
		"emissiveFactor":[0.0,
		0.0,
		0.0],
		"alphaMode":"OPAQUE",
		"doubleSided":false,
		"name":"Mat.1"
	}],
	"meshes":[{
		"name":"ספר.6",
		"primitives":[{
			"attributes":{
				"POSITION":1,
				"NORMAL":2,
				"TEXCOORD_0":3
			},
			"indices":0
		}]
	},
	{
		"name":"ספר.6-Mat.2",
		"primitives":[{
			"attributes":{
				"POSITION":5,
				"NORMAL":6,
				"TEXCOORD_0":7
			},
			"indices":4,
			"material":0
		}]
	},
	{
		"name":"ספר.6-Mat",
		"primitives":[{
			"attributes":{
				"POSITION":9,
				"NORMAL":10,
				"TEXCOORD_0":11
			},
			"indices":8,
			"material":1
		}]
	},
	{
		"name":"ספר.6-Mat.2",
		"primitives":[{
			"attributes":{
				"POSITION":13,
				"NORMAL":14,
				"TEXCOORD_0":15
			},
			"indices":12,
			"material":0
		}]
	},
	{
		"name":"ספר.6-Mat",
		"primitives":[{
			"attributes":{
				"POSITION":17,
				"NORMAL":18,
				"TEXCOORD_0":19
			},
			"indices":16,
			"material":1
		}]
	},
	{
		"name":"ספר.6-Mat.1",
		"primitives":[{
			"attributes":{
				"POSITION":21,
				"NORMAL":22,
				"TEXCOORD_0":23
			},
			"indices":20,
			"material":2
		}]
	},
	{
		"name":"ספר.6-Mat.1",
		"primitives":[{
			"attributes":{
				"POSITION":25,
				"NORMAL":26,
				"TEXCOORD_0":27
			},
			"indices":24,
			"material":2
		}]
	},
	{
		"name":"ספר.6-Mat.2",
		"primitives":[{
			"attributes":{
				"POSITION":29,
				"NORMAL":30,
				"TEXCOORD_0":31
			},
			"indices":28,
			"material":0
		}]
	}],
	"accessors":[{
		"bufferView":0,
		"type":"SCALAR",
		"componentType":5123,
		"count":144,
		"byteOffset":0,
		"min":[0],
		"max":[95]
	},
	{
		"bufferView":1,
		"type":"VEC3",
		"componentType":5126,
		"count":96,
		"byteOffset":0,
		"min":[-143.46250915527345,
		49.723411560058597,
		-84.0294189453125],
		"max":[106.53749084472656,
		80.72378540039063,
		165.9705810546875]
	},
	{
		"bufferView":1,
		"type":"VEC3",
		"componentType":5126,
		"count":96,
		"byteOffset":12,
		"min":[-1.0,
		-1.0,
		-1.0],
		"max":[1.0,
		1.0,
		1.0]
	},
	{
		"bufferView":1,
		"type":"VEC2",
		"componentType":5126,
		"count":96,
		"byteOffset":24,
		"min":[0.0,
		0.0],
		"max":[1.0,
		1.0]
	},
	{
		"bufferView":2,
		"type":"SCALAR",
		"componentType":5123,
		"count":6,
		"byteOffset":0,
		"min":[0],
		"max":[3]
	},
	{
		"bufferView":3,
		"type":"VEC3",
		"componentType":5126,
		"count":4,
		"byteOffset":0,
		"min":[96.83440399169922,
		19.443771362304689,
		-0.03219469264149666],
		"max":[98.75818634033203,
		23.065214157104493,
		76.23269653320313]
	},
	{
		"bufferView":3,
		"type":"VEC3",
		"componentType":5126,
		"count":4,
		"byteOffset":12,
		"min":[0.8831302523612976,
		0.4691278040409088,
		0.0],
		"max":[0.8831302523612976,
		0.4691278040409088,
		0.0]
	},
	{
		"bufferView":3,
		"type":"VEC2",
		"componentType":5126,
		"count":4,
		"byteOffset":24,
		"min":[0.0,
		0.0],
		"max":[0.0,
		1.0]
	},
	{
		"bufferView":4,
		"type":"SCALAR",
		"componentType":5123,
		"count":6,
		"byteOffset":0,
		"min":[0],
		"max":[3]
	},
	{
		"bufferView":5,
		"type":"VEC3",
		"componentType":5126,
		"count":4,
		"byteOffset":0,
		"min":[191.50543212890626,
		29.15708351135254,
		-17.24348258972168],
		"max":[191.50543212890626,
		36.435813903808597,
		-9.46589183807373]
	},
	{
		"bufferView":5,
		"type":"VEC3",
		"componentType":5126,
		"count":4,
		"byteOffset":12,
		"min":[1.0,
		0.0,
		0.0],
		"max":[1.0,
		0.0,
		0.0]
	},
	{
		"bufferView":5,
		"type":"VEC2",
		"componentType":5126,
		"count":4,
		"byteOffset":24,
		"min":[1.0,
		0.0],
		"max":[1.0,
		0.0]
	},
	{
		"bufferView":6,
		"type":"SCALAR",
		"componentType":5123,
		"count":6,
		"byteOffset":0,
		"min":[0],
		"max":[3]
	},
	{
		"bufferView":7,
		"type":"VEC3",
		"componentType":5126,
		"count":4,
		"byteOffset":0,
		"min":[189.97491455078126,
		-12.240124702453614,
		-9.264293670654297],
		"max":[189.97491455078126,
		-10.845248222351075,
		85.46479034423828]
	},
	{
		"bufferView":7,
		"type":"VEC3",
		"componentType":5126,
		"count":4,
		"byteOffset":12,
		"min":[1.0,
		0.0,
		0.0],
		"max":[1.0,
		0.0,
		0.0]
	},
	{
		"bufferView":7,
		"type":"VEC2",
		"componentType":5126,
		"count":4,
		"byteOffset":24,
		"min":[0.0,
		1.0],
		"max":[1.0,
		1.0]
	},
	{
		"bufferView":8,
		"type":"SCALAR",
		"componentType":5123,
		"count":15312,
		"byteOffset":0,
		"min":[0],
		"max":[3458]
	},
	{
		"bufferView":9,
		"type":"VEC3",
		"componentType":5126,
		"count":3459,
		"byteOffset":0,
		"min":[-167.8138885498047,
		-90.0162353515625,
		-72.03633117675781],
		"max":[199.9552459716797,
		175.1436767578125,
		112.2642822265625]
	},
	{
		"bufferView":9,
		"type":"VEC3",
		"componentType":5126,
		"count":3459,
		"byteOffset":12,
		"min":[-1.0,
		-1.0,
		-1.0],
		"max":[1.0,
		1.0,
		1.0]
	},
	{
		"bufferView":9,
		"type":"VEC2",
		"componentType":5126,
		"count":3459,
		"byteOffset":24,
		"min":[0.0,
		0.0],
		"max":[1.0,
		1.0]
	},
	{
		"bufferView":10,
		"type":"SCALAR",
		"componentType":5123,
		"count":48258,
		"byteOffset":0,
		"min":[0],
		"max":[12166]
	},
	{
		"bufferView":11,
		"type":"VEC3",
		"componentType":5126,
		"count":12167,
		"byteOffset":0,
		"min":[-256.4281311035156,
		-139.72213745117188,
		-196.9950408935547],
		"max":[219.50311279296876,
		161.9247589111328,
		278.93621826171877]
	},
	{
		"bufferView":11,
		"type":"VEC3",
		"componentType":5126,
		"count":12167,
		"byteOffset":12,
		"min":[-1.0,
		-1.0,
		-1.0],
		"max":[1.0,
		1.0,
		1.0]
	},
	{
		"bufferView":11,
		"type":"VEC2",
		"componentType":5126,
		"count":12167,
		"byteOffset":24,
		"min":[0.0,
		0.0],
		"max":[1.0,
		1.0]
	},
	{
		"bufferView":12,
		"type":"SCALAR",
		"componentType":5123,
		"count":42,
		"byteOffset":0,
		"min":[0],
		"max":[27]
	},
	{
		"bufferView":13,
		"type":"VEC3",
		"componentType":5126,
		"count":28,
		"byteOffset":0,
		"min":[-162.6891632080078,
		23.413774490356447,
		20.824142456054689],
		"max":[-114.93804168701172,
		26.36237335205078,
		81.3071517944336]
	},
	{
		"bufferView":13,
		"type":"VEC3",
		"componentType":5126,
		"count":28,
		"byteOffset":12,
		"min":[0.0,
		0.9558236598968506,
		0.0],
		"max":[0.0,
		1.0,
		0.293940931558609]
	},
	{
		"bufferView":13,
		"type":"VEC2",
		"componentType":5126,
		"count":28,
		"byteOffset":24,
		"min":[0.0,
		0.0],
		"max":[1.0,
		1.0]
	},
	{
		"bufferView":14,
		"type":"SCALAR",
		"componentType":5123,
		"count":4398,
		"byteOffset":0,
		"min":[0],
		"max":[1897]
	},
	{
		"bufferView":15,
		"type":"VEC3",
		"componentType":5126,
		"count":1898,
		"byteOffset":0,
		"min":[-162.6891632080078,
		-35.412864685058597,
		2.2202811241149904],
		"max":[-1.6783783435821534,
		120.42251586914063,
		116.83993530273438]
	},
	{
		"bufferView":15,
		"type":"VEC3",
		"componentType":5126,
		"count":1898,
		"byteOffset":12,
		"min":[-1.0,
		-1.0,
		-1.0],
		"max":[1.0,
		1.0,
		1.0]
	},
	{
		"bufferView":15,
		"type":"VEC2",
		"componentType":5126,
		"count":1898,
		"byteOffset":24,
		"min":[0.0,
		0.0],
		"max":[1.0,
		1.0]
	}],
	"bufferViews":[{
		"buffer":0,
		"byteOffset":0,
		"byteLength":288,
		"target":34963
	},
	{
		"buffer":0,
		"byteOffset":288,
		"byteLength":3072,
		"byteStride":32,
		"target":34962
	},
	{
		"buffer":1,
		"byteOffset":0,
		"byteLength":12,
		"target":34963
	},
	{
		"buffer":1,
		"byteOffset":12,
		"byteLength":128,
		"byteStride":32,
		"target":34962
	},
	{
		"buffer":2,
		"byteOffset":0,
		"byteLength":12,
		"target":34963
	},
	{
		"buffer":2,
		"byteOffset":12,
		"byteLength":128,
		"byteStride":32,
		"target":34962
	},
	{
		"buffer":3,
		"byteOffset":0,
		"byteLength":12,
		"target":34963
	},
	{
		"buffer":3,
		"byteOffset":12,
		"byteLength":128,
		"byteStride":32,
		"target":34962
	},
	{
		"buffer":4,
		"byteOffset":0,
		"byteLength":30624,
		"target":34963
	},
	{
		"buffer":4,
		"byteOffset":30624,
		"byteLength":110688,
		"byteStride":32,
		"target":34962
	},
	{
		"buffer":5,
		"byteOffset":0,
		"byteLength":96516,
		"target":34963
	},
	{
		"buffer":5,
		"byteOffset":96516,
		"byteLength":389344,
		"byteStride":32,
		"target":34962
	},
	{
		"buffer":6,
		"byteOffset":0,
		"byteLength":84,
		"target":34963
	},
	{
		"buffer":6,
		"byteOffset":84,
		"byteLength":896,
		"byteStride":32,
		"target":34962
	},
	{
		"buffer":7,
		"byteOffset":0,
		"byteLength":8796,
		"target":34963
	},
	{
		"buffer":7,
		"byteOffset":8796,
		"byteLength":60736,
		"byteStride":32,
		"target":34962
	}],
	"buffers":[{
		"uri":"data:application/octet-stream;base64,",
		"byteLength":3360
	},
	{
		"uri":"data:application/octet-stream;base64,",
		"byteLength":140
	},
	{
		"uri":"data:application/octet-stream;base64,",
		"byteLength":140
	},
	{
		"uri":"data:application/octet-stream;base64,",
		"byteLength":140
	},
	{
		"uri":"data:application/octet-stream;base64,",
		"byteLength":141312
	},
	{
		"uri":"data:application/octet-stream;base64,",
		"byteLength":485860
	},
	{
		"uri":"data:application/octet-stream;base64,",
		"byteLength":980
	},
	{
		"uri":"data:application/octet-stream;base64,",
		"byteLength":69532
	}]
}